<svg xmlns="http://www.w3.org/2000/svg" width="16" height="16" viewBox="0 0 16 16">
  <defs>
    <style>
      .cls-1 {
        fill: #f59191;
        opacity: 0;
      }

      .cls-2 {
        fill: #666;
      }
    </style>
  </defs>
  <g id="组_1821" data-name="组 1821" transform="translate(-324 -243)">
    <rect id="矩形_751" data-name="矩形 751" class="cls-1" width="16" height="16" transform="translate(324 243)"/>
    <path id="路径_5715" data-name="路径 5715" class="cls-2" d="M151.553,294.191a.54.54,0,0,0-.1-.7.489.489,0,0,0-.7.1c-.025.025-2.8,3.3-6.11,3.3-3.206,0-6.109-3.3-6.134-3.33a.5.5,0,1,0-.751.652,11.2,11.2,0,0,0,1.6,1.5l-1.278,1.328a.483.483,0,0,0,.025.7.33.33,0,0,0,.3.151.493.493,0,0,0,.352-.151l1.377-1.427a9.725,9.725,0,0,0,2.279,1.177l-.525,1.779a.5.5,0,0,0,.352.627h.151a.483.483,0,0,0,.476-.377l.525-1.779a6.931,6.931,0,0,0,1.251.126,6.675,6.675,0,0,0,1.251-.126l.525,1.754a.5.5,0,0,0,.476.377.2.2,0,0,0,.126-.025.5.5,0,0,0,.352-.627l-.533-1.754a9.723,9.723,0,0,0,2.279-1.177l1.353,1.4a.5.5,0,0,0,.352.151.493.493,0,0,0,.352-.151.506.506,0,0,0,.025-.7l-1.276-1.328A9.921,9.921,0,0,0,151.553,294.191Zm0,0" transform="translate(187.359 -45.383)"/>
  </g>
</svg>
