<svg xmlns="http://www.w3.org/2000/svg" width="16" height="16" viewBox="0 0 16 16">
  <defs>
    <style>
      .cls-1 {
        fill: #f59191;
        opacity: 0;
      }

      .cls-2 {
        fill: #666;
      }
    </style>
  </defs>
  <g id="组_2239" data-name="组 2239" transform="translate(-325 -263.999)">
    <rect id="矩形_752" data-name="矩形 752" class="cls-1" width="16" height="16" transform="translate(325 263.999)"/>
    <g id="组_1820" data-name="组 1820" transform="translate(252.6 5.199)">
      <path id="路径_5716" data-name="路径 5716" class="cls-2" d="M86.946,265.722c-1.205-1.091-3.658-2.922-6.545-2.922s-5.344,1.834-6.549,2.927a1.367,1.367,0,0,0,0,2.032c1.205,1.092,3.661,2.927,6.549,2.927s5.339-1.831,6.545-2.922a1.375,1.375,0,0,0,0-2.041Zm-.705,1.263a9.334,9.334,0,0,1-5.839,2.65,9.341,9.341,0,0,1-5.844-2.654.317.317,0,0,1,0-.475,9.337,9.337,0,0,1,5.844-2.655,9.35,9.35,0,0,1,5.839,2.65.325.325,0,0,1,0,.484Z" transform="translate(0)"/>
      <path id="路径_5717" data-name="路径 5717" class="cls-2" d="M382.943,378.4a2.159,2.159,0,1,0,2.043,2.155A2.1,2.1,0,0,0,382.943,378.4Zm0,3.234a1.079,1.079,0,1,1,1.021-1.077A1.051,1.051,0,0,1,382.943,381.634Z" transform="translate(-302.543 -113.812)"/>
    </g>
  </g>
</svg>
