<svg xmlns="http://www.w3.org/2000/svg" width="44" height="44" viewBox="0 0 44 44">
  <defs>
    <style>
      .cls-1 {
        fill: #fff;
        stroke: #e0e0e0;
      }

      .cls-2 {
        fill: #69d048;
      }

      .cls-3 {
        stroke: none;
      }

      .cls-4 {
        fill: none;
      }
    </style>
  </defs>
  <g id="组_968" data-name="组 968" transform="translate(-153 -562)">
    <g id="椭圆_186" data-name="椭圆 186" class="cls-1" transform="translate(153 562)">
      <circle class="cls-3" cx="22" cy="22" r="22"/>
      <circle class="cls-4" cx="22" cy="22" r="21.5"/>
    </g>
    <path id="路径_5429" data-name="路径 5429" class="cls-2" d="M25.45,108.409c0-3.6-3.6-6.537-7.651-6.537-4.286,0-7.661,2.936-7.661,6.537s3.376,6.537,7.661,6.537a11.306,11.306,0,0,0,2.7-.452l2.471,1.353-.678-2.251C24.1,112.239,25.45,110.44,25.45,108.409Zm-10.135-1.128a.9.9,0,1,1,0-1.8.924.924,0,1,1,0,1.8Zm4.955,0a.9.9,0,0,1,0-1.8.924.924,0,1,1,0,1.8Zm-3.041-5.893a7.859,7.859,0,0,1,.867.053c-.779-3.629-4.659-6.326-9.089-6.326C4.056,95.115,0,98.49,0,102.776c0,2.475,1.349,4.505,3.6,6.082l-.9,2.71,3.149-1.579a15.428,15.428,0,0,0,3.155.452c.283,0,.563-.014.841-.036a6.706,6.706,0,0,1-.278-1.888A7.378,7.378,0,0,1,17.229,101.388Zm-4.843-2.443a1.126,1.126,0,1,1,0,2.251,1.145,1.145,0,1,1,0-2.251Zm-6.3,2.251a1.145,1.145,0,1,1,0-2.251,1.126,1.126,0,0,1,0,2.251Z" transform="translate(162.05 478.404)"/>
  </g>
</svg>
